<svg xmlns="http://www.w3.org/2000/svg" viewBox="0 0 1200 590" class="rounded-sm" tabindex="0" style=" box-shadow: none; border-radius: 12px; overflow: hidden; max-width: 100%; max-height: 100%; aspect-ratio: 1200 / 590; user-select: none; cursor: default; font-family: Inter; touch-action: none" width="1200" height="590"><rect x="0" y="0" width="1200" height="590" fill="rgb(13, 17, 23)"/><defs/><g transform="translate(40, 40)" style="transition: transform 0.15s cubic-bezier(0.2, 0.8, 0.2, 1);"><g class="canvas-widget-enter" style="transform-box: fill-box; transform-origin: center center;"><clipPath id="widget-clip-title"><rect x="0" y="0" width="1120" height="100" rx="0"/></clipPath><g clip-path="url(#widget-clip-title)"><g font-family="Inter" font-weight="400" style="cursor: move; touch-action: none;"><g transform="translate(0, 0)"><text x="0" y="40"><tspan font-size="28" fill="#e5e7eb" font-weight="normal">Sahil-09</tspan><tspan font-size="28" fill="#e5e7eb" font-weight="normal">/</tspan><tspan font-size="40" font-weight="600" fill="#ffffff">docusensei</tspan></text></g></g></g></g></g><g transform="translate(40, 160)" style="transition: transform 0.15s cubic-bezier(0.2, 0.8, 0.2, 1);"><g class="canvas-widget-enter" style="transform-box: fill-box; transform-origin: center center;"><clipPath id="widget-clip-description"><rect x="0" y="0" width="800" height="80" rx="0"/></clipPath><g clip-path="url(#widget-clip-description)"><g font-family="Inter" font-weight="400" style="cursor: move; touch-action: none;"><g transform="translate(0, 0)"><text x="0" y="24" font-size="24" fill="#ffffff">AI-powered chat assistant with real-time WebSocket</text><text x="0" y="52.8" font-size="24" fill="#ffffff">streaming, OCR document processing, and RAG knowledge</text></g></g></g></g></g><g transform="translate(45.50389099121094, 493.9619140625)" style="transition: transform 0.15s cubic-bezier(0.2, 0.8, 0.2, 1);"><g class="canvas-widget-enter" style="transform-box: fill-box; transform-origin: center center;"><clipPath id="widget-clip-languages"><rect x="0" y="0" width="1120" height="60" rx="0"/></clipPath><g clip-path="url(#widget-clip-languages)"><g font-family="Inter" font-weight="400" style="cursor: move; touch-action: none;"><g transform="translate(0, 0)"><g transform="translate(0, 0)"><rect x="0.5" y="0.5" width="157" height="31" rx="9.5" fill="#e6eff8" stroke="#ccd5df" stroke-width="1"/><rect x="8" y="11" width="10" height="10" rx="2" fill="#3178c6"/><text x="24" y="23" font-size="20" fill="#111827" font-weight="normal">TypeScript</text></g><g transform="translate(166, 0)"><rect x="0.5" y="0.5" width="79" height="31" rx="9.5" fill="#ede7f3" stroke="#d2cedb" stroke-width="1"/><rect x="8" y="11" width="10" height="10" rx="2" fill="#663399"/><text x="24" y="23" font-size="20" fill="#111827" font-weight="normal">CSS</text></g><g transform="translate(254, 0)"><rect x="0.5" y="0.5" width="157" height="31" rx="9.5" fill="#fdfbeb" stroke="#e1e0d4" stroke-width="1"/><rect x="8" y="11" width="10" height="10" rx="2" fill="#f1e05a"/><text x="24" y="23" font-size="20" fill="#111827" font-weight="normal">JavaScript</text></g><g transform="translate(420, 0)"><rect x="0.5" y="0.5" width="157" height="31" rx="9.5" fill="#e7eaea" stroke="#cdd0d3" stroke-width="1"/><rect x="8" y="11" width="10" height="10" rx="2" fill="#384d54"/><text x="24" y="23" font-size="20" fill="#111827" font-weight="normal">Dockerfile</text></g></g></g></g></g></g><g transform="translate(982.0980987548828, 40)" style="transition: transform 0.15s cubic-bezier(0.2, 0.8, 0.2, 1);"><g class="canvas-widget-enter" style="transform-box: fill-box; transform-origin: center center;"><clipPath id="widget-clip-githubLogo-1784568363298"><rect x="0" y="0" width="160" height="110" rx="0"/></clipPath><g clip-path="url(#widget-clip-githubLogo-1784568363298)"><g font-family="Inter" font-weight="400" style="cursor: move; touch-action: none;"><g transform="translate(0, 0)"><g transform="translate(25, 0)"><svg width="110" height="110" viewBox="0 0 16 16" fill="#ffffff"><path d="M8 0c4.42 0 8 3.58 8 8a8.013 8.013 0 0 1-5.45 7.59c-.4.08-.55-.17-.55-.38 0-.27.01-1.13.01-2.2 0-.75-.25-1.23-.54-1.48 1.78-.2 3.65-.88 3.65-3.95 0-.88-.31-1.59-.82-2.15.08-.2.36-1.02-.08-2.12 0 0-.67-.22-2.2.82-.64-.18-1.32-.27-2-.27-.68 0-1.36.09-2 .27-1.53-1.03-2.2-.82-2.2-.82-.44 1.1-.16 1.92-.08 2.12-.51.56-.82 1.28-.82 2.15 0 3.06 1.86 3.75 3.64 3.95-.23.2-.44.55-.51 1.07-.46.21-1.61.55-2.33-.66-.15-.24-.6-.83-1.23-.82-.67.01-.27.38.01.53.34.19.73.9.82 1.13.16.45.68 1.31 2.69.94 0 .67.01 1.3.01 1.49 0 .21-.15.45-.55.38A7.995 7.995 0 0 1 0 8c0-4.42 3.58-8 8-8Z"/></svg></g></g></g></g></g></g><text x="1190" y="580" text-anchor="end" fill="#6b7280" opacity="0.5" font-size="12" font-family="system-ui, -apple-system, sans-serif" pointer-events="none" style="user-select: none;">githubcard.com</text></svg>